<?xml version="1.0" encoding="UTF-8" standalone="no"?>
<svg
   viewBox="0 0 589.33331 594.66669"
   height="594.66669"
   width="589.33331"
   xml:space="preserve"
   id="svg2"
   version="1.1"
   sodipodi:docname="logofake.svg"
   inkscape:version="1.2.2 (732a01da63, 2022-12-09)"
   xmlns:inkscape="http://www.inkscape.org/namespaces/inkscape"
   xmlns:sodipodi="http://sodipodi.sourceforge.net/DTD/sodipodi-0.dtd"
   xmlns="http://www.w3.org/2000/svg"
   xmlns:svg="http://www.w3.org/2000/svg"
   xmlns:rdf="http://www.w3.org/1999/02/22-rdf-syntax-ns#"
   xmlns:cc="http://creativecommons.org/ns#"
   xmlns:dc="http://purl.org/dc/elements/1.1/"><sodipodi:namedview
     id="namedview13087"
     pagecolor="#ffffff"
     bordercolor="#000000"
     borderopacity="0.25"
     inkscape:showpageshadow="2"
     inkscape:pageopacity="0.0"
     inkscape:pagecheckerboard="0"
     inkscape:deskcolor="#d1d1d1"
     showgrid="false"
     inkscape:zoom="0.98574804"
     inkscape:cx="30.43374"
     inkscape:cy="290.13499"
     inkscape:window-width="1920"
     inkscape:window-height="1009"
     inkscape:window-x="1912"
     inkscape:window-y="-8"
     inkscape:window-maximized="1"
     inkscape:current-layer="g12" /><metadata
     id="metadata8"><rdf:RDF><cc:Work
         rdf:about=""><dc:format>image/svg+xml</dc:format><dc:type
           rdf:resource="http://purl.org/dc/dcmitype/StillImage" /></cc:Work></rdf:RDF></metadata><defs
     id="defs6"><rect
       x="128.83617"
       y="185.64582"
       width="337.81452"
       height="197.81931"
       id="rect14533" /></defs><g
     transform="matrix(0.13333333,0,0,-0.13333333,0,594.66667)"
     id="g12"><path
       id="path14"
       style="fill:#ffffff;fill-opacity:1;fill-rule:nonzero;stroke:none"
       d="m 2210.25,10.25 c 1213.34,0.3516 2197.19,994.05 2197,2220 0.19,1225.47 -983.66,2219.15 -2197,2219 -1213.82,0.15 -2197.6914,-993.53 -2198,-2219 0.3086,-1225.95 984.18,-2219.6484 2198,-2220" /><path
       id="path16"
       style="fill:#007934;fill-opacity:1;fill-rule:nonzero;stroke:none"
       d="m 2210.25,522.25 c 933.59,0.012 1690.61,764.6 1691,1708 -0.39,942.92 -757.41,1707.49 -1691,1707 -934.07,0.49 -1691.102,-764.08 -1691,-1707 -0.102,-943.4 756.93,-1707.988 1691,-1708" /><g
       aria-label="PVC"
       transform="matrix(7.9599926,0,0,-7.9599926,-107.7622,4450.228)"
       id="text14531"
       style="font-size:75.5906px;font-family:'My Font';-inkscape-font-specification:'My Font, Normal';white-space:pre;shape-inside:url(#rect14533);display:inline;fill:#ffffff;stroke:#000000;stroke-opacity:0"><path
         d="m 227.65183,256.13278 q 0,9.86459 -3.2315,17.34806 -3.2315,7.3134 -8.16379,11.73545 -4.76221,4.25198 -11.73545,6.97324 -6.80316,2.55119 -13.09608,3.40158 -6.12285,0.8504 -13.09609,0.8504 h -12.24568 v 42.68982 H 141.2517 V 219.05556 h 35.54651 q 3.57166,0 6.12285,0.17008 2.72126,0 8.33387,0.8504 5.78268,0.68031 10.03466,2.04094 4.25197,1.19056 9.52442,3.91182 5.27245,2.72127 8.67403,6.63308 3.40158,3.74174 5.78269,9.86458 2.3811,5.95277 2.3811,13.60632 z m -24.83153,1.53071 q 0,-19.389 -24.66145,-19.389 h -12.07561 v 38.94809 h 12.24568 q 24.49138,0 24.49138,-19.55909 z"
         style="font-weight:bold;font-size:170.079px;font-family:'Parisine Office Web';-inkscape-font-specification:'Parisine Office Web, Bold'"
         id="path848" /><path
         d="m 342.28518,219.05556 -42.51975,120.24585 h -25.852 L 231.39368,219.05556 h 26.36224 l 22.28035,66.84105 q 4.42205,13.09608 7.3134,27.38272 h 0.34015 q 2.89135,-13.7764 7.3134,-27.04256 l 22.45043,-67.18121 z"
         style="font-weight:bold;font-size:170.079px;font-family:'Parisine Office Web';-inkscape-font-specification:'Parisine Office Web, Bold'"
         id="path850" /><path
         d="m 441.10114,333.00849 q -6.80316,3.91182 -16.32758,6.463 -9.52442,2.55119 -18.19845,2.55119 -26.87248,0 -43.02999,-17.34806 -15.98742,-17.34806 -15.98742,-44.22054 0,-12.75592 3.57166,-24.15122 3.74173,-11.39529 10.71497,-20.57956 7.14332,-9.18426 18.53861,-14.45671 11.56537,-5.44253 26.02209,-5.44253 19.72916,0 34.52603,7.82364 l -8.33387,20.2394 q -11.90553,-7.14332 -24.66145,-7.14332 -7.48348,0 -13.60632,2.55118 -5.95276,2.55119 -9.86458,6.80316 -3.91182,4.25198 -6.63308,10.03466 -2.55119,5.61261 -3.74174,11.56538 -1.02047,5.78268 -1.02047,12.0756 0,18.53861 10.54489,29.93391 10.5449,11.39529 26.02209,11.39529 13.60632,0 24.49137,-7.14332 z"
         style="font-weight:bold;font-size:170.079px;font-family:'Parisine Office Web';-inkscape-font-specification:'Parisine Office Web, Bold'"
         id="path852" /></g></g></svg>
